<?xml version="1.0" encoding="UTF-8" standalone="no"?>
<!-- Created with Inkscape (http://www.inkscape.org/) -->

<svg
   width="56.544537mm"
   height="80.294899mm"
   viewBox="0 0 56.544537 80.294899"
   version="1.1"
   id="svg5330"
   inkscape:version="1.2.2 (b0a8486541, 2022-12-01)"
   sodipodi:docname="thebot.svg"
   xmlns:inkscape="http://www.inkscape.org/namespaces/inkscape"
   xmlns:sodipodi="http://sodipodi.sourceforge.net/DTD/sodipodi-0.dtd"
   xmlns="http://www.w3.org/2000/svg"
   xmlns:svg="http://www.w3.org/2000/svg">
  <sodipodi:namedview
     id="namedview5332"
     pagecolor="#ffffff"
     bordercolor="#000000"
     borderopacity="0.25"
     inkscape:showpageshadow="2"
     inkscape:pageopacity="0.0"
     inkscape:pagecheckerboard="0"
     inkscape:deskcolor="#d1d1d1"
     inkscape:document-units="mm"
     showgrid="false"
     inkscape:zoom="2.1119799"
     inkscape:cx="199.81251"
     inkscape:cy="175.4278"
     inkscape:window-width="2535"
     inkscape:window-height="1284"
     inkscape:window-x="12"
     inkscape:window-y="44"
     inkscape:window-maximized="1"
     inkscape:current-layer="layer1" />
  <defs
     id="defs5327" />
  <g
     inkscape:label="Layer 1"
     inkscape:groupmode="layer"
     id="layer1"
     transform="translate(-76.181122,-108.98179)">
    <g
       id="g2688"
       transform="matrix(0.38272749,0,0,0.38272749,-17.144121,61.99863)"
       style="fill:#63ad47;fill-opacity:1">
      <path
         d="m 254.64939,214.50773 c -3.00842,0 -5.56097,1.04911 -7.65919,3.14734 -2.09823,2.09823 -3.14766,4.61604 -3.14766,7.55469 v 45.11979 c 0,3.01222 1.04912,5.56255 3.14766,7.66109 2.09822,2.09823 4.65077,3.14767 7.65919,3.14767 3.00622,0 5.5433,-1.04913 7.609,-3.14767 2.0616,-2.09823 3.09525,-4.64887 3.09525,-7.66109 v -45.11979 c 0,-2.93896 -1.04912,-5.45646 -3.14766,-7.55469 -2.09854,-2.09823 -4.61793,-3.14734 -7.55659,-3.14734 z"
         id="path2680"
         style="fill:#63ad47;fill-opacity:1;stroke-width:0.315713" />
      <path
         d="m 269.5501,286.38387 c 0,3.2209 1.11856,5.9474 3.35603,8.18485 2.23935,2.23746 4.96585,3.35603 8.18453,3.35603 h 7.76528 l 0.10637,23.82181 c 0,3.0081 1.04911,5.56253 3.14734,7.66108 2.09823,2.09855 4.61793,3.14766 7.55469,3.14766 3.00653,0 5.56065,-1.04911 7.6592,-3.14766 2.09853,-2.09855 3.14765,-4.65266 3.14765,-7.66108 v -23.81959 h 14.47986 v 23.81959 c 0,3.0081 1.0488,5.56253 3.14733,7.66108 2.09855,2.09855 4.65046,3.14766 7.6592,3.14766 3.00654,0 5.56065,-1.04911 7.6592,-3.14766 2.09853,-2.09855 3.14734,-4.65266 3.14734,-7.66108 v -23.81959 h 7.87009 c 3.14734,0 5.83879,-1.11889 8.08036,-3.35635 2.23713,-2.23745 3.35633,-4.96395 3.35633,-8.18454 l -0.32112,-69.89628 -18.41284,-0.10266 -10.40951,6.44969 -41.65421,-0.93823 -9.41817,-5.46726 -16.10495,0.0678 z"
         id="path2684"
         style="fill:#63ad47;fill-opacity:1;stroke-width:0.315713"
         sodipodi:nodetypes="scsccssssccssssscscsccccccs" />
      <path
         d="m 380.777,214.50773 c -2.93898,0 -5.45647,1.03365 -7.55501,3.09525 -2.09823,2.06539 -3.14734,4.60246 -3.14734,7.60678 v 45.11979 c 0,3.01222 1.0488,5.56255 3.14734,7.66109 2.09854,2.09854 4.61793,3.14767 7.55501,3.14767 3.00653,0 5.56065,-1.04913 7.65919,-3.14767 2.09854,-2.09854 3.14734,-4.64887 3.14734,-7.66109 v -45.11979 c 0,-3.00464 -1.0488,-5.54139 -3.14734,-7.60678 -2.09854,-2.0616 -4.65266,-3.09525 -7.65919,-3.09525 z"
         id="path2686"
         style="fill:#63ad47;fill-opacity:1;stroke-width:0.315713" />
    </g>
    <path
       id="path673"
       style="display:inline;fill:#63ad47;fill-opacity:1;stroke-width:0.264583"
       d="m 103.97167,108.98179 c -0.002,2.6e-4 -1.48751,0.23505 -2.16524,0.54157 -0.75017,0.33928 -1.38203,0.89806 -2.031919,1.40353 -0.444275,0.34555 -0.865367,0.72167 -1.272275,1.11053 -0.696447,0.66555 -1.373632,1.35456 -1.997292,2.08876 -0.789786,0.92976 -1.484908,1.93652 -2.201418,2.92385 -0.572357,0.7887 -1.141899,1.57987 -1.674833,2.39572 -0.526595,0.80615 -1.016204,1.63609 -1.502749,2.46703 -0.475898,0.81276 -0.968619,1.61833 -1.385446,2.4629 -0.418756,0.84849 -0.763476,1.73158 -1.117245,2.60915 -0.29985,0.74381 -0.60342,1.4879 -0.851628,2.2505 -0.358119,1.1003 -0.843439,2.19289 -0.917773,3.3476 -0.05648,0.87727 0.170386,1.75454 0.365352,2.61173 0.137877,0.60619 0.335431,1.19977 0.565857,1.77715 0.271203,0.67956 0.576231,1.35083 0.957048,1.97559 0.694452,1.13931 1.309592,2.03209 2.101458,3.10598 0.287692,0.39015 0.844847,0.90036 1.154158,1.2736 0.510611,0.61616 1.071112,1.19102 1.648478,1.74511 0.747393,0.71727 1.548908,1.37644 2.345076,2.03916 0.681461,0.56723 1.367732,1.1306 2.081009,1.65726 0.55563,0.41026 1.137454,0.78335 1.710492,1.16892 0.55882,0.37601 1.2728,0.7731 1.86356,1.09663 0.79997,0.43809 2.31728,1.12548 2.32378,1.12804 v 0.002 l 0.002,-5.3e-4 0.002,5.3e-4 v -0.002 c 0,-0.007 1.51194,-0.74262 2.3119,-1.18071 0.59076,-0.32353 1.31714,-0.66795 1.87596,-1.04396 0.57304,-0.38557 1.15486,-0.75866 1.71049,-1.16892 0.71328,-0.52666 1.39955,-1.09003 2.08101,-1.65726 0.79617,-0.66272 1.59717,-1.32189 2.34456,-2.03916 0.57737,-0.55409 1.13839,-1.12895 1.649,-1.74511 0.30931,-0.37324 0.80723,-0.83722 1.09492,-1.22737 0.79186,-1.07388 1.46572,-2.0129 2.16018,-3.15221 0.38081,-0.62476 0.68584,-1.29551 0.95704,-1.97507 0.23043,-0.57739 0.4285,-1.17097 0.56638,-1.77715 0.19496,-0.85719 0.42131,-1.73447 0.36483,-2.61173 -0.0743,-1.15471 -0.55914,-2.24782 -0.91725,-3.34812 -0.24821,-0.7626 -0.55178,-1.50618 -0.85163,-2.24999 -0.35377,-0.87757 -0.69901,-1.76117 -1.11776,-2.60966 -0.41683,-0.84457 -0.90903,-1.64962 -1.38493,-2.46238 -0.48655,-0.83094 -0.97615,-1.66088 -1.50275,-2.46703 -0.53294,-0.81585 -1.103,-1.60754 -1.67535,-2.39624 -0.71651,-0.98733 -1.41112,-1.99409 -2.2009,-2.92385 -0.62366,-0.7342 -1.30085,-1.42321 -1.9973,-2.08876 -0.4069,-0.38886 -0.828,-0.76446 -1.27227,-1.11001 -0.64989,-0.50548 -1.28226,-1.06477 -2.03243,-1.40405 -0.67774,-0.30652 -2.16292,-0.54157 -2.16473,-0.54157 z"
       sodipodi:nodetypes="csssssssssssssssssssssccccsssssssssssssssssssssssc" />
    <path
       id="path528"
       style="display:inline;fill:#243e31;fill-opacity:1;stroke-width:0.264583"
       d="m 103.96805,122.69 -0.001,5.3e-4 c -0.002,5.3e-4 -0.95854,0.22337 -1.43247,0.3545 -0.31172,0.0862 -0.62316,0.1765 -0.92811,0.28422 -0.30577,0.108 -0.60618,0.2312 -0.90279,0.36225 -0.45901,0.20281 -0.90579,0.43148 -1.354957,0.65526 -0.416145,0.20732 -0.840746,0.40056 -1.241267,0.63665 -0.400992,0.23637 -0.775197,0.51504 -1.159102,0.77825 -0.400429,0.27453 -0.804812,0.5443 -1.19321,0.83561 -0.573855,0.4304 -1.151017,0.8605 -1.678451,1.34668 -0.586319,0.54046 -1.135716,1.12332 -1.643827,1.73788 -0.44804,0.54191 -0.875506,1.10657 -1.233,1.71204 -0.249092,0.42188 -0.486614,0.85943 -0.629418,1.32809 -0.130812,0.42929 -0.197606,0.8824 -0.199988,1.33118 -0.0021,0.40371 0.08815,0.80397 0.166915,1.19993 0.07157,0.35979 0.163624,0.71616 0.276985,1.06505 0.137803,0.42411 0.304337,0.83943 0.48886,1.2454 0.149542,0.32901 0.316928,0.64993 0.49971,0.9617 0.295339,0.50376 0.615477,0.99427 0.9617,1.46451 0.35705,0.48495 0.749189,0.9438 1.147733,1.39526 0.388755,0.44038 0.792083,0.86855 1.21181,1.27951 0.77759,0.76134 1.593403,1.48388 2.417424,2.1947 1.016328,0.87671 2.04892,1.7357 3.114543,2.55178 0.45158,0.34584 0.91816,0.67214 1.38803,0.99271 0.63163,0.43094 1.92115,1.24999 1.92288,1.25108 v 10e-4 l 0.001,-5.3e-4 c 0.002,-0.001 1.29125,-0.82014 1.92288,-1.25108 0.46986,-0.32057 0.93645,-0.64687 1.38803,-0.99271 1.06562,-0.81608 2.09821,-1.67559 3.11454,-2.5523 0.82402,-0.71082 1.63983,-1.43284 2.41742,-2.19418 0.41973,-0.41096 0.82306,-0.83913 1.21182,-1.27951 0.39854,-0.45146 0.79068,-0.91031 1.14773,-1.39526 0.34622,-0.47024 0.66584,-0.96075 0.96118,-1.46451 0.18278,-0.31177 0.35069,-0.63269 0.50023,-0.9617 0.18452,-0.40597 0.35105,-0.82129 0.48886,-1.2454 0.11336,-0.34888 0.20542,-0.70526 0.27698,-1.06505 0.0788,-0.39596 0.16911,-0.79622 0.16692,-1.19993 -0.002,-0.44878 -0.0692,-0.90188 -0.19999,-1.33118 -0.1428,-0.46866 -0.38033,-0.90621 -0.62942,-1.32809 -0.35749,-0.60547 -0.78496,-1.17013 -1.233,-1.71204 -0.50811,-0.61456 -1.05751,-1.19742 -1.64382,-1.73788 -0.52744,-0.48617 -1.1046,-0.91628 -1.67845,-1.34668 -0.3884,-0.29131 -0.79279,-0.56108 -1.19321,-0.83561 -0.38391,-0.26321 -0.75811,-0.54188 -1.15911,-0.77825 -0.40052,-0.23609 -0.82512,-0.42933 -1.24127,-0.63665 -0.44916,-0.22378 -0.89594,-0.45245 -1.35495,-0.65526 -0.29662,-0.13105 -0.59702,-0.25425 -0.90279,-0.36225 -0.30495,-0.10772 -0.61639,-0.19798 -0.92811,-0.28422 -0.47398,-0.13115 -1.43247,-0.35324 -1.43247,-0.35502 z"
       sodipodi:nodetypes="ccssssssssssscssssssssssccssssssssssscssssssssssssc" />
  </g>
</svg>
